<svg xmlns="http://www.w3.org/2000/svg" id="a" data-name="vodka casino" viewBox="0 0 16 16"><defs><clipPath id="b"><path d="M8 0c4.42 0 8 3.58 8 8s-3.58 8-8 8-8-3.58-8-8 3.58-8 8-8" style="fill:none"/></clipPath><style>.f{fill:#fffefb}</style></defs><g style="clip-path:url(#b)"><path d="M13.6 3.12c.11.05.37.19.55.49.23.38.2.77.18.88-.41 4.51-.74 7.81-.83 8.68-.02.19-.06.67-.41.97a1 1 0 0 1-.55.23c-.63.09-2.76.08-5.66-.04.7-3.75 1.41-7.51 2.11-11.26 1.53.02 3.07.03 4.6.05Z" class="f"/><path d="M13.08 4.07c.1.03.41.14.63.44.28.4.22.83.2.91-.33 2.49-.65 4.98-.98 7.48-.02.08-.07.31-.29.5-.19.16-.39.2-.47.21-1.06 0-2.12.01-3.18.02l.27-9.54c1.27 0 2.54-.02 3.81-.02Z" style="fill:#0c131c"/><path d="M13.06 6.58c.06.03.14.09.22.19.13.16.17.34.18.42l-.87 5.58c-.04.07-.12.18-.24.27-.23.16-.46.14-.54.13-.91.02-1.81.05-2.72.07.17-2.23.33-4.46.5-6.69 1.15 0 2.31.02 3.46.02Z" style="fill:#1a212a"/><path d="M4.58 14.69C4.23 14.11 2.61 11 .44 6.71c-.03-.06-.28-.48-.1-.97.13-.37.42-.55.51-.6 2.41-1.08 4.82-2.17 7.23-3.25.08-.02.35-.07.65.07.26.12.39.32.43.4 1.18 5.07 2.02 8.79 2.08 9.22.04.28-.02.53-.02.53-.06.24-.17.42-.24.53-2.75 1.28-4.74 2.2-5.25 2.47-.08.04-.29.15-.54.11-.31-.06-.5-.34-.61-.53" style="fill:#0190ff"/><path d="M2.46 7.18c.11-.08.3-.2.54-.3.9-.35 1.41.11 2.9.34 1.13.17 1.69.26 2.18.21.3-.03.93-.12 1.28.3.08.09.12.19.15.25l.87 3.38c.01.06.03.16.02.27-.02.16-.08.27-.11.32-1.33.63-2.65 1.27-3.98 1.9-.09.03-.22.05-.37.04-.2-.01-.36-.08-.46-.13-1.02-1.94-2.05-3.87-3.07-5.81a.62.62 0 0 1-.09-.4c.01-.21.12-.34.15-.38Z" class="f"/><path d="M2.94 8.23c.06-.09.15-.22.3-.32.44-.29.97-.09 1.79.1 1.01.23 1.51.34 2.13.31.65-.04 1.05-.21 1.67-.01.3.09.52.23.67.34l.69 2.66c.02.03.08.17.03.34-.07.24-.32.3-.34.3-1.22.55-2.43 1.11-3.65 1.66-.04.02-.18.11-.37.08a.55.55 0 0 1-.3-.14c-.87-1.77-1.75-3.54-2.62-5.3Z" style="fill:#e8f0f9"/></g></svg>